<svg width="200" height="200" viewBox="0 0 200 200" fill="none" xmlns="http://www.w3.org/2000/svg">
<g clip-path="url(#clip0_2_705)">
<mask id="mask0_2_705" style="mask-type:luminance" maskUnits="userSpaceOnUse" x="0" y="0" width="200" height="200">
<path d="M0 0L0 200H200V0H0Z" fill="white"/>
</mask>
<g mask="url(#mask0_2_705)">
<path fill-rule="evenodd" clip-rule="evenodd" d="M100 0C155.228 -2.41411e-06 200 44.7715 200 100C200 155.228 155.228 200 100 200C44.7715 200 2.41411e-06 155.228 0 100C-2.41412e-06 44.7715 44.7715 2.41411e-06 100 0ZM100 0C138.108 -1.66574e-06 169 30.8923 169 69C169 107.108 138.108 138 100 138C61.8924 138 31 107.108 31 69C31 30.8923 61.8924 1.66574e-06 100 0ZM132 69C132 51.3269 117.673 37 100 37C82.3269 37 68 51.3269 68 69C68 86.6731 82.3269 101 100 101C117.673 101 132 86.6731 132 69Z" fill="url(#paint0_linear_2_705)"/>
</g>
</g>
<defs>
<linearGradient id="paint0_linear_2_705" x1="-1.00277e-05" y1="23" x2="152.5" y2="160.5" gradientUnits="userSpaceOnUse">
<stop stop-color="#B0B9FF"/>
<stop offset="1" stop-color="#E7E9FF"/>
</linearGradient>
<clipPath id="clip0_2_705">
<rect width="200" height="200" fill="white"/>
</clipPath>
</defs>
</svg>
