<svg width="200" height="200" viewBox="0 0 200 200" fill="none" xmlns="http://www.w3.org/2000/svg">
<g clip-path="url(#clip0_2_788)">
<mask id="mask0_2_788" style="mask-type:luminance" maskUnits="userSpaceOnUse" x="0" y="0" width="200" height="200">
<path d="M200 0H0V200H200V0Z" fill="white"/>
</mask>
<g mask="url(#mask0_2_788)">
<path fill-rule="evenodd" clip-rule="evenodd" d="M50 0H0V100H50C22.3858 100 0 122.386 0 150V200H100V150C100 177.614 122.386 200 150 200H200V100H150C177.614 100 200 77.6142 200 50V0H100V50C100 22.3858 77.6142 0 50 0ZM100 100H50C77.6142 100 100 122.386 100 150V100ZM100 100V50C100 77.6142 122.386 100 150 100H100Z" fill="url(#paint0_linear_2_788)"/>
</g>
</g>
<defs>
<linearGradient id="paint0_linear_2_788" x1="100" y1="0" x2="100" y2="200" gradientUnits="userSpaceOnUse">
<stop stop-color="#A7B5FF"/>
<stop offset="1" stop-color="#F3ACFF"/>
</linearGradient>
<clipPath id="clip0_2_788">
<rect width="200" height="200" fill="white"/>
</clipPath>
</defs>
</svg>
