<svg width="200" height="200" viewBox="0 0 200 200" fill="none" xmlns="http://www.w3.org/2000/svg">
<g clip-path="url(#clip0_2_714)">
<mask id="mask0_2_714" style="mask-type:luminance" maskUnits="userSpaceOnUse" x="0" y="0" width="200" height="200">
<path d="M200 0H0V200H200V0Z" fill="white"/>
</mask>
<g mask="url(#mask0_2_714)">
<path d="M93.6797 5.15488C97.359 2.1541 102.641 2.1541 106.32 5.15488L114.253 11.6251C116.75 13.6609 120.074 14.3697 123.183 13.5292L133.039 10.8653C137.616 9.6282 142.432 11.7751 144.572 16.0059L149.229 25.2155C150.679 28.0815 153.416 30.0769 156.588 30.5794L166.717 32.1841C171.384 32.9235 174.897 36.8291 175.139 41.5484L175.672 51.9385C175.836 55.1331 177.519 58.0566 180.199 59.8034L188.865 65.4521C192.811 68.0248 194.427 73.0034 192.743 77.4036L189.015 87.1466C187.874 90.1272 188.225 93.4732 189.958 96.1527L195.618 104.899C198.175 108.852 197.629 114.053 194.306 117.389L186.976 124.748C184.722 127.011 183.684 130.214 184.184 133.369L185.815 143.668C186.552 148.327 183.933 152.868 179.531 154.564L169.921 158.264C166.93 159.416 164.672 161.931 163.849 165.029L161.188 175.047C159.973 179.623 155.716 182.719 150.989 182.466L140.78 181.92C137.567 181.748 134.468 183.132 132.452 185.639L126.014 193.647C123.04 197.346 117.876 198.445 113.653 196.277L104.567 191.612C101.7 190.141 98.2999 190.141 95.4331 191.612L86.3465 196.277C82.1243 198.445 76.9601 197.346 73.9862 193.647L67.548 185.639C65.5321 183.132 62.433 181.748 59.2203 181.92L49.0111 182.466C44.284 182.719 40.0271 179.623 38.8119 175.047L36.1507 165.029C35.3279 161.931 33.0702 159.416 30.0792 158.264L20.4691 154.564C16.0666 152.868 13.4477 148.327 14.1855 143.668L15.8162 133.369C16.3157 130.214 15.2781 127.011 13.024 124.748L5.69366 117.389C2.37112 114.053 1.82508 108.852 4.38247 104.899L10.0415 96.1527C11.7752 93.4732 12.1257 90.1272 10.9851 87.1466L7.2566 77.4036C5.57275 73.0034 7.18855 68.0248 11.1354 65.4521L19.8014 59.8034C22.4812 58.0566 24.1636 55.1331 24.3275 51.9385L24.8607 41.5484C25.1029 36.8291 28.6155 32.9235 33.2828 32.1841L43.4118 30.5794C46.5838 30.0769 49.3214 28.0815 50.7708 25.2155L55.4283 16.0059C57.5679 11.7751 62.3844 9.62819 66.9613 10.8653L76.8169 13.5292C79.9264 14.3697 83.2504 13.6609 85.7465 11.6251L93.6797 5.15488Z" fill="url(#paint0_linear_2_714)"/>
</g>
</g>
<defs>
<linearGradient id="paint0_linear_2_714" x1="177" y1="8.43203e-05" x2="39.5" y2="152.5" gradientUnits="userSpaceOnUse">
<stop stop-color="#B0B9FF"/>
<stop offset="1" stop-color="#E7E9FF"/>
</linearGradient>
<clipPath id="clip0_2_714">
<rect width="200" height="200" fill="white"/>
</clipPath>
</defs>
</svg>
