<svg width="200" height="200" viewBox="0 0 200 200" fill="none" xmlns="http://www.w3.org/2000/svg">
<g clip-path="url(#clip0_2_710)">
<mask id="mask0_2_710" style="mask-type:luminance" maskUnits="userSpaceOnUse" x="0" y="0" width="200" height="200">
<path d="M200 0H0V200H200V0Z" fill="white"/>
</mask>
<g mask="url(#mask0_2_710)">
<path fill-rule="evenodd" clip-rule="evenodd" d="M100 200C155.228 200 200 155.228 200 100C200 44.7715 155.228 0 100 0C44.7715 0 0 44.7715 0 100C0 155.228 44.7715 200 100 200ZM100 188C148.601 188 188 148.601 188 100C188 51.3989 148.601 12 100 12C51.3989 12 12 51.3989 12 100C12 148.601 51.3989 188 100 188ZM100 176C141.974 176 176 141.974 176 100C176 58.0264 141.974 24 100 24C58.0264 24 24 58.0264 24 100C24 141.974 58.0264 176 100 176ZM100 164C135.346 164 164 135.346 164 100C164 64.6538 135.346 36 100 36C64.6538 36 36 64.6538 36 100C36 135.346 64.6538 164 100 164ZM152 100C152 128.719 128.719 152 100 152C71.2812 152 48 128.719 48 100C48 71.2812 71.2812 48 100 48C128.719 48 152 71.2812 152 100ZM140 100C140 122.091 122.091 140 100 140C77.9086 140 60 122.091 60 100C60 77.9086 77.9086 60 100 60C122.091 60 140 77.9086 140 100Z" fill="url(#paint0_linear_2_710)"/>
</g>
</g>
<defs>
<linearGradient id="paint0_linear_2_710" x1="27.5" y1="19" x2="149" y2="174.5" gradientUnits="userSpaceOnUse">
<stop stop-color="#FFD9A0"/>
<stop offset="1" stop-color="#FFF5F1"/>
</linearGradient>
<clipPath id="clip0_2_710">
<rect width="200" height="200" fill="white"/>
</clipPath>
</defs>
</svg>
