<svg width="200" height="200" viewBox="0 0 200 200" fill="none" xmlns="http://www.w3.org/2000/svg">
<g clip-path="url(#clip0_2_782)">
<mask id="mask0_2_782" style="mask-type:luminance" maskUnits="userSpaceOnUse" x="0" y="0" width="200" height="200">
<path d="M0 0L0 200H200V0H0Z" fill="white"/>
</mask>
<g mask="url(#mask0_2_782)">
<path fill-rule="evenodd" clip-rule="evenodd" d="M43.2557 174.653L43.2556 200H56.7444V174.653C56.7444 164.762 64.7626 156.744 74.6535 156.744H74.7023H100H125.296H125.347C135.237 156.744 143.256 164.762 143.256 174.653V200H156.744V174.653C156.744 164.762 164.763 156.744 174.654 156.744H174.702H200V143.256H174.702H174.654C164.763 143.256 156.744 135.238 156.744 125.347V100V74.6534C156.744 64.7624 164.763 56.7442 174.654 56.7442L174.702 56.7443H200V43.2557H174.702H174.654C164.763 43.2557 156.744 35.2375 156.744 25.3466V0L143.256 5.896e-07V25.3466C143.256 35.2375 135.237 43.2557 125.347 43.2557H125.298H100H74.7022H74.6535C64.7626 43.2557 56.7444 35.2375 56.7444 25.3466V4.37113e-06L43.2556 4.96075e-06V25.3466C43.2556 35.2375 35.2374 43.2558 25.3465 43.2558L25.2978 43.2557H0L7.505e-08 56.7443H25.2964L25.3465 56.7442C35.2374 56.7442 43.2557 64.7624 43.2557 74.6534L43.2556 100L43.2557 125.347C43.2557 135.238 35.2374 143.256 25.3465 143.256H25.2978H0L7.505e-08 156.744H25.2964H25.3465C35.2374 156.744 43.2557 164.762 43.2557 174.653ZM143.256 100V74.6534C143.256 64.7624 135.237 56.7442 125.347 56.7442L125.296 56.7443H100H74.7023L74.6535 56.7442C64.7626 56.7442 56.7444 64.7624 56.7444 74.6534V100V125.347C56.7444 135.238 64.7626 143.256 74.6535 143.256H74.7022H100H125.298H125.347C135.237 143.256 143.256 135.238 143.256 125.347V100Z" fill="url(#paint0_linear_2_782)"/>
</g>
</g>
<defs>
<linearGradient id="paint0_linear_2_782" x1="-2.40532e-06" y1="100" x2="200" y2="100" gradientUnits="userSpaceOnUse">
<stop stop-color="#A7B5FF"/>
<stop offset="1" stop-color="#F3ACFF"/>
</linearGradient>
<clipPath id="clip0_2_782">
<rect width="200" height="200" fill="white"/>
</clipPath>
</defs>
</svg>
