<svg width="200" height="200" viewBox="0 0 200 200" fill="none" xmlns="http://www.w3.org/2000/svg">
<g clip-path="url(#clip0_2_761)">
<mask id="mask0_2_761" style="mask-type:luminance" maskUnits="userSpaceOnUse" x="0" y="0" width="200" height="200">
<path d="M200 0H0V200H200V0Z" fill="white"/>
</mask>
<g mask="url(#mask0_2_761)">
<path fill-rule="evenodd" clip-rule="evenodd" d="M101.604 0.859655C100.827 -0.435397 98.95 -0.435396 98.1733 0.859656L79.3112 32.3082C78.7977 33.1643 77.7317 33.5106 76.8131 33.1199L43.0683 18.7644C41.6787 18.1732 40.1603 19.2764 40.2931 20.7806L43.5183 57.3099C43.6061 58.3043 42.9473 59.2111 41.9744 59.4349L6.23641 67.6557C4.76472 67.9943 4.18475 69.7792 5.17639 70.9182L29.257 98.5752C29.9125 99.3281 29.9125 100.449 29.257 101.202L5.17639 128.859C4.18475 129.998 4.76472 131.783 6.23642 132.121L41.9744 140.342C42.9473 140.566 43.6061 141.473 43.5183 142.467L40.2931 178.996C40.1603 180.501 41.6787 181.604 43.0683 181.013L76.8131 166.657C77.7317 166.266 78.7977 166.613 79.3112 167.469L98.1733 198.917C98.95 200.213 100.827 200.212 101.604 198.917L120.466 167.469C120.979 166.613 122.045 166.266 122.964 166.657L156.709 181.013C158.098 181.604 159.617 180.501 159.484 178.996L156.259 142.467C156.171 141.473 156.83 140.566 157.803 140.342L193.541 132.121C195.012 131.783 195.592 129.998 194.601 128.859L170.52 101.202C169.865 100.449 169.865 99.3281 170.52 98.5752L194.601 70.9182C195.592 69.7792 195.012 67.9943 193.541 67.6557L157.803 59.4349C156.83 59.2111 156.171 58.3043 156.259 57.3099L159.484 20.7806C159.617 19.2764 158.098 18.1732 156.709 18.7644L122.964 33.1199C122.045 33.5106 120.979 33.1643 120.466 32.3082L101.604 0.859655ZM99.9999 150C127.614 150 150 127.614 150 100C150 72.3857 127.614 50 99.9999 50C72.3857 50 49.9999 72.3857 49.9999 100C49.9999 127.614 72.3857 150 99.9999 150Z" fill="url(#paint0_linear_2_761)"/>
</g>
</g>
<defs>
<linearGradient id="paint0_linear_2_761" x1="24.2003" y1="15.8884" x2="106.37" y2="196.947" gradientUnits="userSpaceOnUse">
<stop stop-color="#ACAAFF"/>
<stop offset="1" stop-color="#C0E8FF"/>
</linearGradient>
<clipPath id="clip0_2_761">
<rect width="200" height="200" fill="white"/>
</clipPath>
</defs>
</svg>
