<svg width="200" height="200" viewBox="0 0 200 200" fill="none" xmlns="http://www.w3.org/2000/svg">
<g clip-path="url(#clip0_2_772)">
<mask id="mask0_2_772" style="mask-type:luminance" maskUnits="userSpaceOnUse" x="0" y="0" width="200" height="200">
<path d="M200 0H0V200H200V0Z" fill="white"/>
</mask>
<g mask="url(#mask0_2_772)">
<path fill-rule="evenodd" clip-rule="evenodd" d="M120 0H80V110C80 121.046 71.0457 130 60 130C48.9543 130 40 121.046 40 110V0H0V100C0 155.228 44.7715 200 100 200C155.228 200 200 155.228 200 100V0H160V110C160 121.046 151.046 130 140 130C128.954 130 120 121.046 120 110V0Z" fill="url(#paint0_linear_2_772)"/>
</g>
</g>
<defs>
<linearGradient id="paint0_linear_2_772" x1="100" y1="0" x2="100" y2="200" gradientUnits="userSpaceOnUse">
<stop stop-color="#A7B5FF"/>
<stop offset="1" stop-color="#F3ACFF"/>
</linearGradient>
<clipPath id="clip0_2_772">
<rect width="200" height="200" fill="white"/>
</clipPath>
</defs>
</svg>
