<svg width="200" height="200" viewBox="0 0 200 200" fill="none" xmlns="http://www.w3.org/2000/svg">
<g clip-path="url(#clip0_2_798)">
<mask id="mask0_2_798" style="mask-type:luminance" maskUnits="userSpaceOnUse" x="0" y="0" width="200" height="200">
<path d="M200 0H0V200H200V0Z" fill="white"/>
</mask>
<g mask="url(#mask0_2_798)">
<path fill-rule="evenodd" clip-rule="evenodd" d="M0 100L4.37114e-06 0L100 4.37114e-06C100 55.2285 55.2285 100 0 100ZM200 100C200 44.7716 155.228 1.88558e-05 100 4.37114e-06V100H0C-4.82822e-06 155.228 44.7715 200 100 200H200V100ZM199.961 100H100V200C100 144.785 144.75 100.021 199.961 100Z" fill="url(#paint0_linear_2_798)"/>
</g>
</g>
<defs>
<linearGradient id="paint0_linear_2_798" x1="157.5" y1="32" x2="44" y2="147.5" gradientUnits="userSpaceOnUse">
<stop offset="0.0509862" stop-color="#FFB6E1"/>
<stop offset="1" stop-color="#FBE3EA"/>
</linearGradient>
<clipPath id="clip0_2_798">
<rect width="200" height="200" fill="white"/>
</clipPath>
</defs>
</svg>
