<svg width="200" height="200" viewBox="0 0 200 200" fill="none" xmlns="http://www.w3.org/2000/svg">
<g clip-path="url(#clip0_2_775)">
<mask id="mask0_2_775" style="mask-type:luminance" maskUnits="userSpaceOnUse" x="0" y="0" width="200" height="200">
<path d="M200 0H0V200H200V0Z" fill="white"/>
</mask>
<g mask="url(#mask0_2_775)">
<path d="M127.14 200C99.9942 200 99.9943 167.423 72.8487 167.423C41.6048 167.423 0 158.386 0 127.133C0 99.9885 32.5678 99.9885 32.5678 72.8445C32.5678 41.6139 41.6048 0 72.8602 0C100.006 0 100.006 32.5774 127.151 32.5774C158.384 32.5774 200 41.6139 200 72.8675C200 100.012 167.421 100.012 167.421 127.156C167.409 158.444 158.384 200 127.14 200Z" fill="url(#paint0_linear_2_775)"/>
</g>
</g>
<defs>
<linearGradient id="paint0_linear_2_775" x1="100" y1="0" x2="100" y2="200" gradientUnits="userSpaceOnUse">
<stop stop-color="#DF99F7"/>
<stop offset="1" stop-color="#FFDBB0"/>
</linearGradient>
<clipPath id="clip0_2_775">
<rect width="200" height="200" fill="white"/>
</clipPath>
</defs>
</svg>
