<svg width="200" height="200" viewBox="0 0 200 200" fill="none" xmlns="http://www.w3.org/2000/svg">
<path fill-rule="evenodd" clip-rule="evenodd" d="M169.909 139.373C161.736 129.94 160.408 115.21 165.832 103.97C170.425 94.452 173 83.7766 173 72.5C173 32.4594 140.541 0 100.5 0C60.4595 0 28.0001 32.4594 28.0001 72.5C28.0001 83.522 30.4597 93.9695 34.8599 103.324C40.1724 114.617 38.6998 129.334 30.4353 138.686C20.1833 150.288 12.7936 164.478 9.37182 180.151C7.01581 190.942 16.1945 200 27.2402 200H172.503C183.549 200 192.728 190.943 190.372 180.151C187.017 164.786 179.849 150.845 169.909 139.373Z" fill="url(#paint0_linear_2_791)"/>
<defs>
<linearGradient id="paint0_linear_2_791" x1="99.8718" y1="0" x2="99.8718" y2="200" gradientUnits="userSpaceOnUse">
<stop stop-color="#B8DBFC"/>
<stop offset="1" stop-color="#F8FBFE"/>
</linearGradient>
</defs>
</svg>
