<svg width="200" height="200" viewBox="0 0 200 200" fill="none" xmlns="http://www.w3.org/2000/svg">
<g clip-path="url(#clip0_2_749)">
<mask id="mask0_2_749" style="mask-type:luminance" maskUnits="userSpaceOnUse" x="0" y="0" width="200" height="200">
<path d="M200 0H0V200H200V0Z" fill="white"/>
</mask>
<g mask="url(#mask0_2_749)">
<path fill-rule="evenodd" clip-rule="evenodd" d="M0.00242398 200C0.000809232 199.834 0 199.667 0 199.5C0 174.111 18.7366 153.097 43.1371 149.533C18.7701 146.188 0 125.286 0 100C0 72.3858 22.3858 50 50 50H50.5C22.7765 50 0.270718 27.6601 0.00242398 0H199.998C199.729 27.6601 177.224 50 149.5 50H150C177.614 50 200 72.3858 200 100C200 125.286 181.23 146.188 156.863 149.533C181.263 153.097 200 174.111 200 199.5C200 199.667 199.999 199.834 199.998 200H0.00242398Z" fill="url(#paint0_linear_2_749)"/>
</g>
</g>
<defs>
<linearGradient id="paint0_linear_2_749" x1="177" y1="-1.00277e-05" x2="39.5" y2="152.5" gradientUnits="userSpaceOnUse">
<stop stop-color="#B0B9FF"/>
<stop offset="1" stop-color="#E7E9FF"/>
</linearGradient>
<clipPath id="clip0_2_749">
<rect width="200" height="200" fill="white"/>
</clipPath>
</defs>
</svg>
